<svg xmlns="http://www.w3.org/2000/svg" width="32" height="32" viewBox="0 0 32 32">
  <g id="Group_339" data-name="Group 339" transform="translate(-240 -696)">
    <rect id="Rectangle_611" data-name="Rectangle 611" width="32" height="32" rx="16" transform="translate(240 696)" fill="#f0f1f2"/>
    <path id="location_on_FILL0_wght400_GRAD0_opsz24" d="M166.4-872a1.541,1.541,0,0,0,1.13-.47,1.541,1.541,0,0,0,.47-1.13,1.54,1.54,0,0,0-.47-1.13,1.541,1.541,0,0,0-1.13-.47,1.541,1.541,0,0,0-1.13.47,1.54,1.54,0,0,0-.47,1.13,1.541,1.541,0,0,0,.47,1.13A1.541,1.541,0,0,0,166.4-872Zm0,5.88a22.015,22.015,0,0,0,3.62-4.07,6.211,6.211,0,0,0,1.18-3.25,4.833,4.833,0,0,0-1.39-3.57,4.637,4.637,0,0,0-3.41-1.39,4.637,4.637,0,0,0-3.41,1.39,4.833,4.833,0,0,0-1.39,3.57,6.211,6.211,0,0,0,1.18,3.25A22.015,22.015,0,0,0,166.4-866.12Zm0,2.12a26.6,26.6,0,0,1-4.81-5.09,7.916,7.916,0,0,1-1.59-4.35,6.187,6.187,0,0,1,1.93-4.78A6.393,6.393,0,0,1,166.4-880a6.393,6.393,0,0,1,4.47,1.78,6.187,6.187,0,0,1,1.93,4.78,7.916,7.916,0,0,1-1.59,4.35A26.6,26.6,0,0,1,166.4-864ZM166.4-873.6Z" transform="translate(89.601 1584)" fill="#86888c"/>
  </g>
</svg>
