<svg xmlns="http://www.w3.org/2000/svg" width="32" height="32" viewBox="0 0 32 32">
  <g id="Group_338" data-name="Group 338" transform="translate(-240 -540)">
    <rect id="Rectangle_610" data-name="Rectangle 610" width="32" height="32" rx="16" transform="translate(240 540)" fill="#f0f1f2"/>
    <path id="schedule_FILL0_wght400_GRAD0_opsz24" d="M90.64-868.24l1.12-1.12-2.96-2.96V-876H87.2v4.32ZM88-864a7.79,7.79,0,0,1-3.12-.63,8.079,8.079,0,0,1-2.54-1.71,8.079,8.079,0,0,1-1.71-2.54A7.79,7.79,0,0,1,80-872a7.79,7.79,0,0,1,.63-3.12,8.078,8.078,0,0,1,1.71-2.54,8.078,8.078,0,0,1,2.54-1.71A7.79,7.79,0,0,1,88-880a7.79,7.79,0,0,1,3.12.63,8.078,8.078,0,0,1,2.54,1.71,8.079,8.079,0,0,1,1.71,2.54A7.79,7.79,0,0,1,96-872a7.79,7.79,0,0,1-.63,3.12,8.08,8.08,0,0,1-1.71,2.54,8.079,8.079,0,0,1-2.54,1.71A7.79,7.79,0,0,1,88-864ZM88-872Zm0,6.4a6.17,6.17,0,0,0,4.53-1.87A6.17,6.17,0,0,0,94.4-872a6.17,6.17,0,0,0-1.87-4.53A6.17,6.17,0,0,0,88-878.4a6.17,6.17,0,0,0-4.53,1.87A6.17,6.17,0,0,0,81.6-872a6.17,6.17,0,0,0,1.87,4.53A6.17,6.17,0,0,0,88-865.6Z" transform="translate(168 1428)" fill="#86888c"/>
  </g>
</svg>
