<svg width="18" height="18" viewBox="0 0 18 18" fill="none" xmlns="http://www.w3.org/2000/svg">
<g id="Component 1">
<mask id="mask0_12194_3756" style="mask-type:alpha" maskUnits="userSpaceOnUse" x="0" y="0" width="18" height="18">
<rect id="Bounding box" width="18" height="18" fill="#D9D9D9"/>
</mask>
<g mask="url(#mask0_12194_3756)">
<path id="mail" d="M3.15005 14.4001C2.7788 14.4001 2.46099 14.2678 2.19661 14.0033C1.93224 13.7388 1.80005 13.4208 1.80005 13.0493V4.94479C1.80005 4.57333 1.93224 4.25635 2.19661 3.99385C2.46099 3.73135 2.7788 3.6001 3.15005 3.6001H14.85C15.2213 3.6001 15.5391 3.73236 15.8035 3.99688C16.0679 4.26141 16.2 4.5794 16.2 4.95085V13.0554C16.2 13.4269 16.0679 13.7438 15.8035 14.0063C15.5391 14.2688 15.2213 14.4001 14.85 14.4001H3.15005ZM9.00005 9.9001L3.15005 6.54385V13.0501H14.85V6.54385L9.00005 9.9001ZM9.00005 8.30635L14.85 4.9501H3.15005L9.00005 8.30635ZM3.15005 6.54385V4.9501V13.0501V6.54385Z" fill="#BB2608"/>
</g>
</g>
</svg>
