<svg width="20" height="20" viewBox="0 0 20 20" fill="none" xmlns="http://www.w3.org/2000/svg">
<g id="Component 1">
<mask id="mask0_12254_2894" style="mask-type:alpha" maskUnits="userSpaceOnUse" x="0" y="0" width="20" height="20">
<rect id="Bounding box" width="20" height="20" fill="#D9D9D9"/>
</mask>
<g mask="url(#mask0_12254_2894)">
<path id="auto_transmission" d="M3.25 17C2.625 17 2.09375 16.7814 1.65625 16.3442C1.21875 15.907 1 15.3761 1 14.7516C1 14.2644 1.13889 13.8264 1.41667 13.4375C1.69444 13.0486 2.05556 12.7778 2.5 12.625V7.375C2.05556 7.22222 1.69444 6.95194 1.41667 6.56415C1.13889 6.17637 1 5.73855 1 5.25069C1 4.62523 1.21875 4.09375 1.65625 3.65625C2.09375 3.21875 2.625 3 3.25 3C3.875 3 4.40625 3.2186 4.84375 3.65579C5.28125 4.09299 5.5 4.62386 5.5 5.24842C5.5 5.73558 5.36111 6.17361 5.08333 6.5625C4.80556 6.95139 4.44444 7.22222 4 7.375V9.25H8.75V7.375C8.30556 7.22222 7.94444 6.95194 7.66667 6.56415C7.38889 6.17637 7.25 5.73855 7.25 5.25069C7.25 4.62523 7.46875 4.09375 7.90625 3.65625C8.34375 3.21875 8.875 3 9.5 3C10.125 3 10.6562 3.2186 11.0938 3.65579C11.5312 4.09299 11.75 4.62386 11.75 5.24842C11.75 5.73558 11.6111 6.17361 11.3333 6.5625C11.0556 6.95139 10.6944 7.22222 10.25 7.375V9.25H14.25C14.4625 9.25 14.6406 9.17813 14.7844 9.03438C14.9281 8.89063 15 8.7125 15 8.5V7.375C14.5556 7.22222 14.1944 6.95194 13.9167 6.56415C13.6389 6.17637 13.5 5.73855 13.5 5.25069C13.5 4.62523 13.7188 4.09375 14.1562 3.65625C14.5938 3.21875 15.125 3 15.75 3C16.375 3 16.9062 3.2186 17.3438 3.65579C17.7812 4.09299 18 4.62386 18 5.24842C18 5.73558 17.8611 6.17361 17.5833 6.5625C17.3056 6.95139 16.9444 7.22222 16.5 7.375V8.5C16.5 9.125 16.2812 9.65625 15.8438 10.0938C15.4062 10.5312 14.875 10.75 14.25 10.75H10.25V12.625C10.6944 12.7778 11.0556 13.0481 11.3333 13.4359C11.6111 13.8236 11.75 14.2615 11.75 14.7493C11.75 15.3748 11.5312 15.9062 11.0938 16.3438C10.6562 16.7812 10.125 17 9.5 17C8.875 17 8.34375 16.7814 7.90625 16.3442C7.46875 15.907 7.25 15.3761 7.25 14.7516C7.25 14.2644 7.38889 13.8264 7.66667 13.4375C7.94444 13.0486 8.30556 12.7778 8.75 12.625V10.75H4V12.625C4.44444 12.7778 4.80556 13.0481 5.08333 13.4359C5.36111 13.8236 5.5 14.2615 5.5 14.7493C5.5 15.3748 5.28125 15.9062 4.84375 16.3438C4.40625 16.7812 3.875 17 3.25 17ZM3.2456 15.5C3.45687 15.5 3.63542 15.4285 3.78125 15.2856C3.92708 15.1427 4 14.9656 4 14.7544C4 14.5431 3.92855 14.3646 3.78565 14.2188C3.64273 14.0729 3.46565 14 3.2544 14C3.04313 14 2.86458 14.0715 2.71875 14.2144C2.57292 14.3573 2.5 14.5344 2.5 14.7456C2.5 14.9569 2.57145 15.1354 2.71435 15.2812C2.85727 15.4271 3.03435 15.5 3.2456 15.5ZM3.2456 6C3.45687 6 3.63542 5.92855 3.78125 5.78565C3.92708 5.64273 4 5.46565 4 5.2544C4 5.04313 3.92855 4.86458 3.78565 4.71875C3.64273 4.57292 3.46565 4.5 3.2544 4.5C3.04313 4.5 2.86458 4.57145 2.71875 4.71435C2.57292 4.85727 2.5 5.03435 2.5 5.2456C2.5 5.45687 2.57145 5.63542 2.71435 5.78125C2.85727 5.92708 3.03435 6 3.2456 6ZM9.4956 15.5C9.70687 15.5 9.88542 15.4285 10.0312 15.2856C10.1771 15.1427 10.25 14.9656 10.25 14.7544C10.25 14.5431 10.1785 14.3646 10.0356 14.2188C9.89273 14.0729 9.71565 14 9.5044 14C9.29313 14 9.11458 14.0715 8.96875 14.2144C8.82292 14.3573 8.75 14.5344 8.75 14.7456C8.75 14.9569 8.82145 15.1354 8.96435 15.2812C9.10727 15.4271 9.28435 15.5 9.4956 15.5ZM9.4956 6C9.70687 6 9.88542 5.92855 10.0312 5.78565C10.1771 5.64273 10.25 5.46565 10.25 5.2544C10.25 5.04313 10.1785 4.86458 10.0356 4.71875C9.89273 4.57292 9.71565 4.5 9.5044 4.5C9.29313 4.5 9.11458 4.57145 8.96875 4.71435C8.82292 4.85727 8.75 5.03435 8.75 5.2456C8.75 5.45687 8.82145 5.63542 8.96435 5.78125C9.10727 5.92708 9.28435 6 9.4956 6ZM15.7456 6C15.9569 6 16.1354 5.92855 16.2812 5.78565C16.4271 5.64273 16.5 5.46565 16.5 5.2544C16.5 5.04313 16.4285 4.86458 16.2856 4.71875C16.1427 4.57292 15.9656 4.5 15.7544 4.5C15.5431 4.5 15.3646 4.57145 15.2188 4.71435C15.0729 4.85727 15 5.03435 15 5.2456C15 5.45687 15.0715 5.63542 15.2144 5.78125C15.3573 5.92708 15.5344 6 15.7456 6Z" fill="black"/>
</g>
</g>
</svg>
