<svg width="24" height="24" viewBox="0 0 24 24" fill="none" xmlns="http://www.w3.org/2000/svg">
<g id="Component 1">
<mask id="mask0_12194_4988" style="mask-type:alpha" maskUnits="userSpaceOnUse" x="0" y="0" width="24" height="24">
<rect id="Bounding box" width="24" height="24" fill="#D9D9D9"/>
</mask>
<g mask="url(#mask0_12194_4988)">
<path id="call" d="M19.0749 20.3751C17.0582 20.2251 15.1457 19.7293 13.3374 18.8876C11.5291 18.0459 9.90822 16.9084 8.47489 15.4751C7.04156 14.0418 5.91239 12.4251 5.08739 10.6251C4.26239 8.8251 3.76656 6.91676 3.59989 4.9001C3.56656 4.5501 3.66894 4.24593 3.90704 3.9876C4.14512 3.72926 4.44274 3.6001 4.79989 3.6001H8.19989C8.48322 3.6001 8.72906 3.6876 8.93739 3.8626C9.14572 4.0376 9.28322 4.25843 9.34989 4.5251L9.94989 7.1751C9.98322 7.39176 9.97072 7.6001 9.91239 7.8001C9.85406 8.0001 9.75822 8.16676 9.62489 8.3001L7.19989 10.7501C7.53322 11.3834 7.91656 11.9918 8.34989 12.5751C8.78322 13.1584 9.2663 13.7083 9.79912 14.2247C10.2996 14.725 10.8332 15.1876 11.3999 15.6126C11.9666 16.0376 12.5666 16.4168 13.1999 16.7501L15.6749 14.3501C15.8082 14.2168 15.9749 14.1209 16.1749 14.0626C16.3749 14.0043 16.5832 13.9918 16.7999 14.0251L19.4749 14.6001C19.7582 14.6834 19.9832 14.8293 20.1499 15.0376C20.3166 15.2459 20.3999 15.4918 20.3999 15.7751V19.1751C20.3999 19.5322 20.2666 19.8299 19.9999 20.0679C19.7332 20.306 19.4249 20.4084 19.0749 20.3751ZM6.37489 9.0001L8.12489 7.2501L7.69589 5.4001H5.44989C5.53322 6.03343 5.64989 6.64593 5.79989 7.2376C5.94989 7.82926 6.14156 8.41676 6.37489 9.0001ZM14.9749 17.6001C15.5599 17.8375 16.1561 18.026 16.7636 18.1656C17.3711 18.3053 17.9832 18.4168 18.5999 18.5001V16.2501L16.7249 15.8501L14.9749 17.6001Z" fill="#BB2608"/>
</g>
</g>
</svg>
