<svg width="20" height="20" viewBox="0 0 20 20" fill="none" xmlns="http://www.w3.org/2000/svg">
<g clip-path="url(#clip0_12441_2976)">
<path d="M13.2101 3H3V4.10526H7.43422V5.94737H3V7.05263H15.863V8.52632H15.105C14.9155 8.29053 14.6881 8.10632 14.4304 7.98105C14.1727 7.85579 13.8923 7.78947 13.5891 7.78947C13.2859 7.78947 12.9978 7.85579 12.7325 7.98105C12.4672 8.10632 12.2474 8.29053 12.0731 8.52632H8.87439L9.53384 9.63158H11.6941C11.6941 10.14 11.876 10.5747 12.2398 10.9358C12.6113 11.2968 13.0585 11.4737 13.5891 11.4737C14.1197 11.4737 14.5593 11.2968 14.9307 10.9358C15.2945 10.5747 15.484 10.14 15.484 9.63158H17V6.68421L13.2101 3ZM8.44992 5.94737V4.10526H12.7325L14.6275 5.94737H8.44992ZM14.1197 10.1547C13.9756 10.2947 13.7937 10.3684 13.5815 10.3684C13.3692 10.3684 13.1949 10.2947 13.0433 10.1547C12.8993 10.0074 12.8311 9.83789 12.8311 9.63158C12.8311 9.42526 12.8993 9.24842 13.0509 9.10842C13.1949 8.96842 13.3768 8.89474 13.5891 8.89474C13.8013 8.89474 13.9756 8.96842 14.1272 9.10842C14.2713 9.25579 14.347 9.42526 14.347 9.63158C14.347 9.83789 14.2713 10.0147 14.1197 10.1547Z" fill="black"/>
<path d="M10.7694 11.459H9.26854L7.50244 8.52637H3V9.63163H4.32648V11.459H3V12.5643H10.5799V14.0674H8.88197C8.70006 13.8316 8.47266 13.6474 8.21494 13.5148C7.94965 13.3822 7.66919 13.3158 7.366 13.3158C7.06281 13.3158 6.77477 13.3822 6.51706 13.5148C6.25176 13.6474 6.03194 13.8316 5.85003 14.0674H3V15.1727H5.46345C5.46345 15.6811 5.64537 16.1085 6.01678 16.4695C6.3882 16.8232 6.83541 17.0001 7.35842 17.0001C7.88143 17.0001 8.32864 16.8232 8.70005 16.4695C9.07147 16.1158 9.25338 15.6811 9.25338 15.1727H10.7694C11.0271 15.1727 11.2545 15.0843 11.4364 14.9001C11.6183 14.7158 11.7168 14.5022 11.7168 14.2516V12.3801C11.7168 12.1295 11.6259 11.9085 11.4364 11.7316C11.2469 11.5548 11.0271 11.459 10.7694 11.459ZM5.46345 11.459V9.63163H6.83541L7.94207 11.459H5.46345ZM7.89659 15.6811C7.75257 15.8211 7.57066 15.8948 7.35842 15.8948C7.14618 15.8948 6.96427 15.8211 6.82025 15.6811C6.67623 15.5411 6.60043 15.3643 6.60043 15.1579C6.60043 14.9516 6.67623 14.7748 6.82025 14.6348C6.96427 14.4948 7.14618 14.4211 7.35842 14.4211C7.57066 14.4211 7.75257 14.4948 7.89659 14.6348C8.04061 14.7748 8.11641 14.9516 8.11641 15.1579C8.11641 15.3643 8.04061 15.5411 7.89659 15.6811Z" fill="black"/>
</g>
<defs>
<clipPath id="clip0_12441_2976">
<rect width="14" height="14" fill="white" transform="translate(3 3)"/>
</clipPath>
</defs>
</svg>
