<svg width="96" height="96" viewBox="0 0 96 96" fill="none" xmlns="http://www.w3.org/2000/svg">
<g clip-path="url(#clip0_12021_4100)">
<path d="M83.8372 55.653C87.9279 36.6365 75.8281 17.9044 56.8116 13.8137C37.795 9.72303 19.0629 21.8228 14.9723 40.8394C10.8816 59.8559 22.9814 78.588 41.9979 82.6787C61.0145 86.7694 79.7466 74.6696 83.8372 55.653Z" fill="#F2F2F2"/>
<path d="M64.0821 38.1383L63.8053 37.849C62.3965 36.3647 62.2456 34.1886 63.4657 33.0314L68.6858 28.1006C70.5726 26.3018 73.277 26.0629 74.6858 27.5471L74.9626 27.8364C76.3714 29.3207 75.9814 32.0125 74.0947 33.7987L68.8745 38.7295C67.6544 39.8993 65.4909 39.6226 64.0695 38.1383H64.0821Z" fill="white" stroke="#BB2608" stroke-width="2" stroke-miterlimit="10"/>
<path d="M37.6165 44.6667L30.8366 42.1636L21.8052 70.7925C22.3209 71.2076 22.8366 71.6353 23.3272 72.0629C25.0379 73.5724 26.6605 75.3082 28.0316 77.195L36.7863 78.4529C38.7108 76.3522 40.17 74.9938 41.8303 73.4214C54.7108 74.3648 60.6605 64.8554 61.9435 63.3585C63.2266 61.8617 37.6291 44.6793 37.6291 44.6793L37.6165 44.6667Z" fill="white" stroke="#BB2608" stroke-width="2" stroke-miterlimit="10"/>
<path d="M63.2389 64.6037H40.5974C37.8175 64.6037 35.5659 62.3647 35.5659 59.5849C35.5659 49.0565 35.5659 24.805 35.5659 14.2893C35.5659 11.5094 37.8175 9.27039 40.5974 9.27039H63.2389C66.0187 9.27039 68.2703 11.5094 68.2703 14.2893C68.2703 24.8176 68.2703 49.0691 68.2703 59.5849C68.2703 62.3647 66.0187 64.6037 63.2389 64.6037Z" fill="#F2F2F2" stroke="#BB2608" stroke-width="2" stroke-miterlimit="10"/>
<path d="M68.2703 16.8051H35.5659V54.5409H68.2703V16.8051Z" fill="white" stroke="#BB2608" stroke-width="2" stroke-miterlimit="10"/>
<path d="M67.5537 63.4843L67.2769 63.2453C65.8556 62.0251 65.3273 60.2893 66.1071 59.3962L69.4027 55.6101C70.5977 54.2264 72.7235 54.1006 74.1449 55.3207L74.4216 55.5597C75.843 56.7799 76.0317 58.9057 74.8367 60.2893L71.5411 64.0755C70.7738 64.9685 68.9751 64.7044 67.5537 63.4843Z" fill="white" stroke="#BB2608" stroke-width="2" stroke-miterlimit="10"/>
<path d="M36.2578 44.4277C37.5534 40.5157 38.0943 37.7233 38.522 33.1195C38.7736 30.478 37.6541 28.2013 36.4843 26.566C35.2893 24.8931 32.371 25.2704 31.7798 27.1572C29.2012 35.4214 28.7107 37.673 27.1132 41.8239C25.327 46.4654 26.3459 52.9811 25.4654 54.8931C25.2893 55.2704 19.2893 63.0063 17.6289 65.3459C19.4025 66.239 23.1006 67.8742 24.5597 69.1698C26.3333 70.7421 28.0188 72.5409 29.4402 74.4906L30.8113 74.6038L38.7861 66.3899C42.2201 56.5912 39.3648 48.3648 36.2704 44.4528L36.2578 44.4277Z" fill="white"/>
<path d="M38.7736 66.3648C42.2075 56.566 39.3522 48.3396 36.2578 44.4277C37.5534 40.5157 38.0943 37.7233 38.522 33.1195C38.7736 30.478 37.6541 28.2013 36.4843 26.566C35.2893 24.8931 32.371 25.2704 31.7798 27.1572C29.2012 35.4214 28.7107 37.673 27.1132 41.8239C25.327 46.4654 26.3459 52.9811 25.4654 54.8931C25.2893 55.2704 19.2893 63.0063 17.6289 65.3459C19.4025 66.239 23.1006 67.8742 24.5597 69.1698C26.3333 70.7421 28.0188 72.5409 29.4402 74.4906L30.8113 74.6038" stroke="#BB2608" stroke-width="2" stroke-miterlimit="10"/>
<path d="M19.9733 60.0394L13.1489 66.859L32.5053 86.2289L39.3297 79.4093L19.9733 60.0394Z" fill="#FFCDC2" stroke="#BB2608" stroke-width="2" stroke-miterlimit="10"/>
<path d="M67.5785 54.6541L67.3018 54.4151C65.8553 53.1698 65.327 51.4088 66.1068 50.4906L69.4528 46.6415C70.6603 45.2327 72.8364 45.1069 74.2704 46.3522L74.5471 46.5912C75.9936 47.8365 76.1823 50 74.9748 51.4088L71.6289 55.2579C70.849 56.1635 69.0251 55.8994 67.5785 54.6541Z" fill="white" stroke="#BB2608" stroke-width="2" stroke-miterlimit="10"/>
<path d="M67.5785 46.088L67.3018 45.849C65.8553 44.6038 65.327 42.8428 66.1068 41.9245L69.4528 38.0755C70.6603 36.6667 72.8364 36.5409 74.2704 37.7862L74.5471 38.0251C75.9936 39.2704 76.1823 41.434 74.9622 42.8428L71.6163 46.6918C70.8364 47.5975 69.0125 47.3333 67.566 46.088H67.5785Z" fill="white" stroke="#BB2608" stroke-width="2" stroke-miterlimit="10"/>
<path d="M48.1445 59.5723H55.6917" stroke="#BB2608" stroke-width="2" stroke-miterlimit="10"/>
</g>
<defs>
<clipPath id="clip0_12021_4100">
<rect width="73.2453" height="80" fill="white" transform="translate(11.3774 8)"/>
</clipPath>
</defs>
</svg>
