<svg width="20" height="20" viewBox="0 0 20 20" fill="none" xmlns="http://www.w3.org/2000/svg">
<g id="Component 1">
<mask id="mask0_12254_2889" style="mask-type:alpha" maskUnits="userSpaceOnUse" x="0" y="0" width="20" height="20">
<rect id="Bounding box" width="20" height="20" fill="#D9D9D9"/>
</mask>
<g mask="url(#mask0_12254_2889)">
<path id="local_gas_station" d="M4 17V4.5C4 4.0875 4.14687 3.73438 4.44062 3.44063C4.73437 3.14688 5.0875 3 5.5 3H10.5C10.9125 3 11.2656 3.14688 11.5594 3.44063C11.8531 3.73438 12 4.0875 12 4.5V10H13C13.275 10 13.5104 10.0979 13.7063 10.2938C13.9021 10.4896 14 10.725 14 11V15C14 15.2833 14.0958 15.5208 14.2875 15.7125C14.4792 15.9042 14.7167 16 15 16C15.2833 16 15.5208 15.9042 15.7125 15.7125C15.9042 15.5208 16 15.2833 16 15V8.72917C15.8472 8.8125 15.688 8.87847 15.5222 8.92708C15.3564 8.97569 15.1823 9 15 9C14.44 9 13.9667 8.80667 13.58 8.42C13.1933 8.03333 13 7.56 13 7C13 6.55019 13.1354 6.14608 13.4062 5.78765C13.6771 5.42922 14.0347 5.19444 14.4792 5.08333L13.125 3.72917L13.8333 3.02083L16.4167 5.58333C16.6111 5.77778 16.7569 5.99795 16.8542 6.24385C16.9514 6.48976 17 6.74181 17 7V15C17 15.56 16.8071 16.0333 16.4214 16.42C16.0356 16.8067 15.5634 17 15.0047 17C14.446 17 13.9722 16.8067 13.5833 16.42C13.1944 16.0333 13 15.56 13 15V11H12V17H4ZM5.5 8.5H10.5V4.5H5.5V8.5ZM15 8C15.2833 8 15.5208 7.90417 15.7125 7.7125C15.9042 7.52083 16 7.28333 16 7C16 6.71667 15.9042 6.47917 15.7125 6.2875C15.5208 6.09583 15.2833 6 15 6C14.7167 6 14.4792 6.09583 14.2875 6.2875C14.0958 6.47917 14 6.71667 14 7C14 7.28333 14.0958 7.52083 14.2875 7.7125C14.4792 7.90417 14.7167 8 15 8ZM5.5 15.5H10.5V10H5.5V15.5Z" fill="black"/>
</g>
</g>
</svg>
