<svg width="40" height="40" viewBox="0 0 40 40" fill="none" xmlns="http://www.w3.org/2000/svg">
<path d="M0 20C0 8.95431 8.95431 0 20 0C31.0457 0 40 8.95431 40 20C40 31.0457 31.0457 40 20 40C8.95431 40 0 31.0457 0 20Z" fill="#BB2608"/>
<mask id="mask0_12007_1152" style="mask-type:alpha" maskUnits="userSpaceOnUse" x="10" y="10" width="20" height="20">
<rect x="10" y="10" width="20" height="20" fill="#D9D9D9"/>
</mask>
<g mask="url(#mask0_12007_1152)">
<path d="M25.8958 26.9792C24.2153 26.8542 22.6215 26.441 21.1146 25.7396C19.6076 25.0382 18.2569 24.0903 17.0625 22.8958C15.868 21.7014 14.9271 20.3542 14.2396 18.8542C13.5521 17.3542 13.1389 15.7639 13 14.0833C12.9722 13.7917 13.0575 13.5382 13.2559 13.3229C13.4544 13.1076 13.7024 13 14 13H16.8333C17.0694 13 17.2743 13.0729 17.4479 13.2188C17.6215 13.3646 17.7361 13.5486 17.7917 13.7708L18.2917 15.9792C18.3194 16.1597 18.309 16.3333 18.2604 16.5C18.2118 16.6667 18.1319 16.8056 18.0208 16.9167L16 18.9583C16.2778 19.4861 16.5972 19.9931 16.9583 20.4792C17.3194 20.9653 17.722 21.4235 18.166 21.8538C18.5831 22.2707 19.0278 22.6562 19.5 23.0104C19.9722 23.3646 20.4722 23.6806 21 23.9583L23.0625 21.9583C23.1736 21.8472 23.3125 21.7674 23.4792 21.7188C23.6458 21.6701 23.8194 21.6597 24 21.6875L26.2292 22.1667C26.4653 22.2361 26.6528 22.3576 26.7917 22.5312C26.9305 22.7049 27 22.9097 27 23.1458V25.9792C27 26.2768 26.8889 26.5248 26.6667 26.7232C26.4444 26.9216 26.1875 27.0069 25.8958 26.9792ZM15.3125 17.5L16.7708 16.0417L16.4133 14.5H14.5417C14.6111 15.0278 14.7083 15.5382 14.8333 16.0312C14.9583 16.5243 15.118 17.0139 15.3125 17.5ZM22.4792 24.6667C22.9667 24.8645 23.4635 25.0216 23.9698 25.138C24.476 25.2543 24.9861 25.3472 25.5 25.4167V23.5417L23.9375 23.2083L22.4792 24.6667Z" fill="white"/>
</g>
</svg>
