<svg width="24" height="24" viewBox="0 0 24 24" fill="none" xmlns="http://www.w3.org/2000/svg">
<g id="Component 1">
<mask id="mask0_12194_4993" style="mask-type:alpha" maskUnits="userSpaceOnUse" x="0" y="0" width="24" height="24">
<rect id="Bounding box" width="24" height="24" fill="#D9D9D9"/>
</mask>
<g mask="url(#mask0_12194_4993)">
<path id="ad_units" d="M6.60005 22.8C6.10505 22.8 5.6813 22.6237 5.3288 22.2712C4.9763 21.9187 4.80005 21.495 4.80005 21V2.99995C4.80005 2.50495 4.9763 2.0812 5.3288 1.7287C5.6813 1.3762 6.10505 1.19995 6.60005 1.19995H17.4C17.895 1.19995 18.3188 1.3762 18.6713 1.7287C19.0238 2.0812 19.2 2.50495 19.2 2.99995V21C19.2 21.495 19.0238 21.9187 18.6713 22.2712C18.3188 22.6237 17.895 22.8 17.4 22.8H6.60005ZM6.60005 19.8V21H17.4V19.8H6.60005ZM6.60005 18H17.4V5.99995H6.60005V18ZM6.60005 4.19995H17.4V2.99995H6.60005V4.19995Z" fill="#BB2608"/>
</g>
</g>
</svg>
