<svg xmlns="http://www.w3.org/2000/svg" width="16" height="20" viewBox="0 0 16 20">
  <path id="location_on_FILL0_wght400_GRAD0_opsz48" d="M16,13.75a1.75,1.75,0,0,0,1.237-2.988,1.75,1.75,0,0,0-2.475,2.475A1.686,1.686,0,0,0,16,13.75Zm0,8.275a29.28,29.28,0,0,0,4.913-5.488A8.325,8.325,0,0,0,22.5,12.2a6.508,6.508,0,0,0-1.888-4.825A6.3,6.3,0,0,0,16,5.5a6.3,6.3,0,0,0-4.613,1.875A6.508,6.508,0,0,0,9.5,12.2a8.2,8.2,0,0,0,1.625,4.338A31.8,31.8,0,0,0,16,22.025ZM16,24a33.243,33.243,0,0,1-6.012-6.362A9.894,9.894,0,0,1,8,12.2a7.734,7.734,0,0,1,2.413-5.975,8.128,8.128,0,0,1,11.175,0A7.734,7.734,0,0,1,24,12.2a9.894,9.894,0,0,1-1.987,5.438A33.243,33.243,0,0,1,16,24ZM16,12.2Z" transform="translate(-8 -4)" fill="#48d874"/>
</svg>
