<svg xmlns="http://www.w3.org/2000/svg" width="24" height="24" viewBox="0 0 24 24">
  <path id="search_FILL0_wght400_GRAD0_opsz48" d="M28.533,29.95l-8.767-8.767a7.345,7.345,0,0,1-2.333,1.35,8.25,8.25,0,0,1-2.833.483,8.3,8.3,0,0,1-6.1-2.5A8.221,8.221,0,0,1,6,14.483,8.221,8.221,0,0,1,8.5,8.45a8.26,8.26,0,0,1,6.067-2.5,8.167,8.167,0,0,1,6.017,2.5,8.249,8.249,0,0,1,2.483,6.033A8.315,8.315,0,0,1,22.6,17.25a8.461,8.461,0,0,1-1.4,2.5L30,28.483ZM14.567,21.017a6.238,6.238,0,0,0,4.6-1.917,6.321,6.321,0,0,0,1.9-4.617,6.321,6.321,0,0,0-1.9-4.617,6.238,6.238,0,0,0-4.6-1.917,6.332,6.332,0,0,0-4.65,1.917A6.293,6.293,0,0,0,8,14.483,6.293,6.293,0,0,0,9.917,19.1,6.332,6.332,0,0,0,14.567,21.017Z" transform="translate(-6 -5.95)" fill="#eb6336"/>
</svg>
