<?xml version="1.0" standalone="no"?>
<!DOCTYPE svg PUBLIC "-//W3C//DTD SVG 20010904//EN"
 "http://www.w3.org/TR/2001/REC-SVG-20010904/DTD/svg10.dtd">
<svg version="1.0" xmlns="http://www.w3.org/2000/svg"
 width="700.000000pt" height="700.000000pt" viewBox="0 0 700.000000 700.000000"
 preserveAspectRatio="xMidYMid meet">
<metadata>
Created by potrace 1.14, written by Peter Selinger 2001-2017
</metadata>
<g transform="translate(0.000000,700.000000) scale(0.100000,-0.100000)"
fill="#000000" stroke="none">
<path d="M0 3500 l0 -3500 3500 0 3500 0 0 3500 0 3500 -3500 0 -3500 0 0
-3500z m5715 2007 c194 -69 330 -212 392 -412 17 -57 18 -137 18 -1740 0
-1905 8 -1732 -84 -1818 -77 -72 -106 -77 -433 -77 l-278 0 0 745 0 745 -1769
-2 -1770 -3 -27 -21 c-15 -11 -42 -37 -58 -58 l-31 -38 -3 -684 -2 -684 -400
0 -400 0 0 765 c0 855 0 856 68 995 50 103 159 213 262 263 143 71 4 67 2173
67 l1957 0 0 618 c0 578 -2 619 -19 657 -22 48 -54 79 -103 100 -33 13 -235
15 -1838 15 l-1800 0 0 -580 0 -580 -350 0 -350 0 0 880 0 880 2383 -2 2382
-3 80 -28z"/>
</g>
</svg>
