<svg xmlns="http://www.w3.org/2000/svg" width="206" height="24" viewBox="0 0 206 24" fill="none" class="svg img-responsive replaced-svg">
  <g id="Warstwa_1" clip-path="url(#clip0_12003_5181)">
    <path id="Vector" d="M179.877 0.00683594V2.7458C179.767 2.7458 174.23 2.7458 173.891 2.7458C173.51 2.7458 173.199 3.05362 173.199 3.43141V23.9893H170.435V2.74929H163.758V0.00683594H179.88H179.877Z" fill="#1D1D1B"></path>
    <path id="Vector_2" d="M133.091 21.2504V23.9893H128.252C127.888 23.9544 120.805 24.0803 120.649 23.9019C119.46 23.5941 118.578 22.5237 118.578 21.2504V0.00683594H121.341V20.5648C121.341 20.9426 121.652 21.2504 122.033 21.2504H133.094H133.091Z" fill="#1D1D1B"></path>
    <path id="Vector_3" d="M155.905 19.1939C155.912 20.3097 154.987 21.2507 153.829 21.2507H143.46C142.309 21.2402 141.399 20.3132 141.406 19.1939V4.80297C141.399 3.68709 142.313 2.76012 143.46 2.74612H153.829C154.987 2.74612 155.908 3.6801 155.905 4.80297V19.1904V19.1939ZM158.527 3.65211C158.022 1.53231 156.014 -0.0103256 153.833 0.00716452H143.463C140.866 -0.0243178 138.593 2.21092 138.639 4.80297C138.656 5.07931 138.533 20.6526 138.783 20.3447C139.288 22.4575 141.279 24.0002 143.463 23.9862H153.833C156.43 24.0282 158.714 21.7824 158.672 19.1904C158.654 18.914 158.778 3.33729 158.527 3.64862V3.65211Z" fill="#1D1D1B"></path>
    <path id="Vector_4" d="M202.677 10.9593H200.813C200.746 10.9662 200.676 10.9697 200.605 10.9697H187.719V4.79922C187.712 3.67635 188.637 2.74237 189.794 2.74237H200.817C201.865 2.84732 202.68 3.72882 202.68 4.78872V10.9593H202.677ZM200.908 -8.31626e-05H189.787C187.165 -0.0350635 184.913 2.20018 184.948 4.79572V5.75768C184.966 5.8941 184.956 12.0087 184.948 17.1228H184.941V23.9719H184.948V23.9824H185.64C185.718 23.9824 185.785 23.9754 185.848 23.9719H187.708V22.034C187.716 21.999 187.716 21.9676 187.716 21.9291V13.6038H202.666V15.5417C202.673 15.6081 202.677 15.6781 202.677 15.7481V23.9824H205.44V4.78872C205.44 2.24915 203.443 0.164324 200.912 -8.31626e-05H200.908Z" fill="#1D1D1B"></path>
    <path id="Vector_5" d="M62.8164 0.584171C61.9058 0.209882 60.9105 0 59.8623 0H36.3141V10.3507H40.447V3.51552H58.68C60.9635 3.51552 62.8129 5.34849 62.8129 7.61172C62.8129 9.87495 60.9635 11.7079 58.68 11.7079H39.8541C37.9023 11.7079 36.3105 13.2855 36.3105 15.2199V24H41.0364V16.3918C41.0364 15.7446 41.5658 15.2199 42.2188 15.2199H59.8623C60.907 15.2199 61.9058 15.0101 62.8164 14.6393C63.6988 14.272 64.5035 13.7508 65.1811 13.1036C66.6388 11.7184 67.5458 9.7735 67.5458 7.61172C67.5458 4.446 65.5941 1.72803 62.8235 0.584171" fill="#BB2608"></path>
    <path id="Vector_6" d="M27.6847 0H0V10.3507H4.13294V3.51552H25.32C25.9729 3.51552 26.5023 4.04023 26.5023 4.68387V11.7079H3.54353C1.59176 11.7079 0 13.2855 0 15.2199V24H4.72235V16.3918C4.72235 15.7446 5.25176 15.2199 5.90471 15.2199H26.5023V24H29.6576C30.5224 24 31.2282 23.3039 31.2282 22.4434V3.51552C31.2247 1.57761 29.6365 0 27.6847 0Z" fill="#BB2608"></path>
    <path id="Vector_7" d="M109.465 11.708V15.2235H89.8554C89.2024 15.2235 88.673 15.7482 88.673 16.3954V24.0071H83.9507V15.227C83.9507 13.2891 85.5389 11.7115 87.4942 11.7115H109.468L109.465 11.708Z" fill="#BB2608"></path>
    <path id="Vector_8" d="M83.9507 0V10.3507H88.0836V3.51202H112.43V1.55662C112.43 0.699606 111.731 0 110.859 0L83.9507 0Z" fill="#BB2608"></path>
  </g>
  <defs>
    <clipPath id="clip0_12003_5181">
      <rect width="205.44" height="24" fill="white"></rect>
    </clipPath>
  </defs>
</svg>